# xmcd CD database file
#
# Track frame offsets:
#	150
#	23706
#	48900
#	73687
#	101417
#	116311
#	142908
#	171162
#	197948
#	232128
#
# Disc length: 3383 seconds
#
# Revision: 0
# Processed by: cddbd v1.5.1PL0 Copyright (c) Steve Scherf et al.
# Submitted via: Feurio! 1.68 - http://www.feurio.com
#
DISCID=840d350a
DTITLE=Ellen McIlwaine - Bremen 2001 1 edit
DYEAR=1900
DGENRE=
TTITLE0=Save The World
TTITLE1=Dead End Street
TTITLE2=Sidu
TTITLE3=Take Me To The River
TTITLE4=Mocking Bird
TTITLE5=I Can't Stand The Rain
TTITLE6=Leather Underwear
TTITLE7=Danger Zone
TTITLE8=Egyptian Blues
TTITLE9=Howl At The Moon
EXTD=
EXTT0=
EXTT1=
EXTT2=
EXTT3=
EXTT4=
EXTT5=
EXTT6=
EXTT7=
EXTT8=
EXTT9=
PLAYORDER=
